<?xml version="1.0" encoding="UTF-8" standalone="no"?>
<!-- Created with Inkscape (http://www.inkscape.org/) -->

<svg
   xmlns:dc="http://purl.org/dc/elements/1.1/"
   xmlns:cc="http://creativecommons.org/ns#"
   xmlns:rdf="http://www.w3.org/1999/02/22-rdf-syntax-ns#"
   xmlns:svg="http://www.w3.org/2000/svg"
   xmlns="http://www.w3.org/2000/svg"
   xmlns:xlink="http://www.w3.org/1999/xlink"
   xmlns:sodipodi="http://sodipodi.sourceforge.net/DTD/sodipodi-0.dtd"
   xmlns:inkscape="http://www.inkscape.org/namespaces/inkscape"
   width="210mm"
   height="297mm"
   viewBox="0 0 210 297"
   version="1.1"
   id="svg8"
   inkscape:version="0.92.4 (5da689c313, 2019-01-14)"
   sodipodi:docname="logotry.svg">
  <defs
     id="defs2">
    <linearGradient
       inkscape:collect="always"
       id="linearGradient867">
      <stop
         style="stop-color:#000000;stop-opacity:1;"
         offset="0"
         id="stop863" />
      <stop
         style="stop-color:#000000;stop-opacity:0;"
         offset="1"
         id="stop865" />
    </linearGradient>
    <linearGradient
       inkscape:collect="always"
       xlink:href="#linearGradient867"
       id="linearGradient869"
       x1="35.420326"
       y1="152.54082"
       x2="-8.0180855"
       y2="281.09747"
       gradientUnits="userSpaceOnUse" />
  </defs>
  <sodipodi:namedview
     id="base"
     pagecolor="#ffffff"
     bordercolor="#666666"
     borderopacity="1.0"
     inkscape:pageopacity="0.0"
     inkscape:pageshadow="2"
     inkscape:zoom="0.98994949"
     inkscape:cx="74.397534"
     inkscape:cy="388.10228"
     inkscape:document-units="mm"
     inkscape:current-layer="layer1"
     showgrid="false"
     inkscape:window-width="1366"
     inkscape:window-height="706"
     inkscape:window-x="-8"
     inkscape:window-y="-8"
     inkscape:window-maximized="1" />
  <metadata
     id="metadata5">
    <rdf:RDF>
      <cc:Work
         rdf:about="">
        <dc:format>image/svg+xml</dc:format>
        <dc:type
           rdf:resource="http://purl.org/dc/dcmitype/StillImage" />
        <dc:title></dc:title>
      </cc:Work>
    </rdf:RDF>
  </metadata>
  <g
     inkscape:label="Layer 1"
     inkscape:groupmode="layer"
     id="layer1">
    <path
       style="fill:none;stroke:#000000;stroke-width:0.2667;stroke-linecap:round;stroke-linejoin:round;stroke-miterlimit:4;stroke-dasharray:none;stroke-opacity:1"
       d="m 101.32124,92.491256 c -14.816149,13.351054 -31.1459,32.603614 -35.931359,49.538504 5.954808,10.0757 13.071816,19.53612 35.856609,20.70183 18.26027,0.50673 28.3753,-7.873 36.32485,-19.63568 -9.43841,-16.79093 -56.614475,47.07323 -36.2501,-50.604654 z"
       id="path815"
       inkscape:connector-curvature="0"
       sodipodi:nodetypes="ccccc" />
    <path
       style="fill:none;stroke:#000000;stroke-width:0.26458332px;stroke-linecap:butt;stroke-linejoin:miter;stroke-opacity:1"
       d="m 99.785714,103.47619 c 12.721006,-1.2725 24.788276,-4.506206 37.041666,-7.181547 -3.92163,11.737527 -5.01229,23.070627 -7.37054,34.584817 2.2929,-1.43677 4.74786,-2.38737 7.74852,-1.70089 1.28799,1.24588 3.01528,2.27211 2.26785,4.53571 -3.33879,3.53192 -6.67758,2.87383 -10.01637,3.02381 -1.72018,-0.44354 -3.78703,-0.36706 -4.15773,-2.83482 1.69842,-11.0873 1.77217,-22.1746 5.48065,-33.2619 -9.89038,2.73663 -19.78075,5.34714 -29.67113,5.85863 0.58925,9.81381 -0.0362,19.22272 -0.94494,28.5372 1.37743,-1.60034 2.84802,-2.92122 4.7247,-3.02381 1.57543,0.7766 3.28751,1.4621 3.40179,3.2128 -0.6172,2.47917 -1.77679,4.00918 -3.40179,4.7247 -3.3643,0.39112 -5.746124,-0.93709 -8.126485,-2.26786"
       id="path817"
       inkscape:connector-curvature="0"
       sodipodi:nodetypes="cccccccccccccc" />
    <path
       style="opacity:1;fill:#ffffff;fill-opacity:1;stroke:#000000;stroke-width:1.98050809;stroke-linecap:round;stroke-linejoin:round;stroke-miterlimit:4;stroke-dasharray:none;stroke-opacity:1"
       id="path819"
       sodipodi:type="arc"
       sodipodi:cx="96.510506"
       sodipodi:cy="249.0251"
       sodipodi:rx="27.594053"
       sodipodi:ry="25.830601"
       sodipodi:start="4.734066"
       sodipodi:end="4.7122319"
       sodipodi:open="true"
       d="M 97.108616,223.20057 A 27.594053,25.830601 0 0 1 124.10093,249.44402 27.594053,25.830601 0 0 1 96.2136,274.85421 27.594053,25.830601 0 0 1 68.91684,248.88816 27.594053,25.830601 0 0 1 96.506171,223.1945" />
    <path
       style="fill:none;stroke:#000000;stroke-width:0.26458332px;stroke-linecap:butt;stroke-linejoin:miter;stroke-opacity:1"
       d="m 71.360963,258.51319 c 0.820505,-6.94278 1.440552,-13.95237 6.414468,-19.51068 9.230278,-8.99528 13.722548,-7.60049 24.054259,-8.55263 8.57612,0.54995 12.5035,0.19478 16.30344,2.93997"
       id="path821"
       inkscape:connector-curvature="0"
       sodipodi:nodetypes="cccc" />
    <path
       style="fill:none;stroke:#000000;stroke-width:0.26458332px;stroke-linecap:butt;stroke-linejoin:miter;stroke-opacity:1"
       d="m 164.37076,211.47375 -1.33635,66.55012 -16.83798,-25.39062 35.54685,-12.56166 -10.15625,19.77794 -14.69982,-3.74177"
       id="path823"
       inkscape:connector-curvature="0" />
    <g
       id="g875"
       transform="translate(2.1381558,-3.4745039)"
       inkscape:export-xdpi="96"
       inkscape:export-ydpi="96">
      <path
         sodipodi:nodetypes="cc"
         inkscape:connector-curvature="0"
         id="path827"
         d="m 40.892237,155.88169 c -38.0076913,35.23689 -56.156582,67.31325 -6.414468,77.24089"
         style="fill:url(#linearGradient869);fill-opacity:1;stroke:none;stroke-width:0.26458332px;stroke-linecap:butt;stroke-linejoin:miter;stroke-opacity:1" />
      <g
         id="g853">
        <path
           style="fill:none;stroke:#b587ff;stroke-width:4.23333311;stroke-linecap:round;stroke-linejoin:round;stroke-miterlimit:4;stroke-dasharray:none;stroke-dashoffset:0;stroke-opacity:1"
           d="m 35.012308,208.80105 c 26.025069,-35.8405 32.309814,13.81799 0.26727,17.63979 -44.6496043,-15.81823 -6.905888,-44.61346 12.294397,-62.2738 1.36244,-4.30022 -3.343082,-5.99989 -6.681738,-8.28535 -0.433525,24.98793 -8.429363,48.04394 -6.69709,73.8571 0.07533,1.12259 0.169068,2.25039 0.282622,3.38379"
           id="path825"
           inkscape:connector-curvature="0"
           sodipodi:nodetypes="ccccsc" />
        <path
           sodipodi:nodetypes="cc"
           style="fill:none;stroke:#b587ff;stroke-width:4.23333311;stroke-linecap:round;stroke-linejoin:miter;stroke-miterlimit:4;stroke-dasharray:none;stroke-opacity:1"
           d="M 34.477769,233.12258 C 24.343156,234.65605 6.6016996,224.94533 4.5256,213.07445"
           id="path849"
           inkscape:connector-curvature="0" />
      </g>
    </g>
  </g>
</svg>
